<mxfile host="app.diagrams.net" modified="2024-03-25T13:53:53.029Z" agent="Mozilla/5.0 (Macintosh; Intel Mac OS X 10_15_7) AppleWebKit/605.1.15 (KHTML, like Gecko) Version/15.6.1 Safari/605.1.15" version="23.1.5" etag="_zl4545IKpHIX7ynFLgm" type="github">
  <diagram name="Page-1" id="q76yQ8ovPwNXG_id8Hfe">
    <mxGraphModel>
      <root>
        <mxCell id="0" />
        <mxCell id="1" parent="0" />
      </root>
    </mxGraphModel>
  </diagram>
</mxfile>
